# xmcd CD database file
#
# Track frame offsets:
#	150
#	17905
#	37047
#	60067
#	79710
#	100760
#	113527
#	126380
#	139260
#	160115
#	173060
#	195087
#	211402
#	226510
#	248737
#
# Disc length: 3543 seconds
#
# Revision: 0
# Processed by: cddbd v1.4PL0 Copyright (c) Steve Scherf et al.
# Submitted via: CDex 1.51
#
DISCID=b10dd50f
DTITLE=New Orpheans - Back to the savoy
DYEAR=1900
DGENRE=Jazz
TTITLE0=New Orpheans - All of me
TTITLE1=New Orpheans - I wonder where my baby is tonight
TTITLE2=New Orpheans - Someday sweetheart
TTITLE3=New Orpheans - Buddy's habits
TTITLE4=New Orpheans - After you've gone
TTITLE5=New Orpheans - Charleston
TTITLE6=New Orpheans - Why should I say that I'm sorry
TTITLE7=New Orpheans - Mandy, make up your mind
TTITLE8=New Orpheans - Lazy bones
TTITLE9=New Orpheans - Baby face
TTITLE10=New Orpheans - Tishomingo blues
TTITLE11=New Orpheans - Lady be good
TTITLE12=New Orpheans - It had to be you
TTITLE13=New Orpheans - Tin roof blues
TTITLE14=New Orpheans - Nobody's sweetheart
EXTD=
EXTT0=
EXTT1=
EXTT2=
EXTT3=
EXTT4=
EXTT5=
EXTT6=
EXTT7=
EXTT8=
EXTT9=
EXTT10=
EXTT11=
EXTT12=
EXTT13=
EXTT14=
PLAYORDER=
